<svg width="16" height="20" viewBox="0 0 16 20" fill="none" xmlns="http://www.w3.org/2000/svg">
<g clip-path="url(#clip0_101_2)">
<path d="M0 19.4V0.6C0 0.44087 0.0632141 0.288258 0.175736 0.175736C0.288258 0.0632141 0.44087 0 0.6 0H12.252C12.4111 0.000140042 12.5636 0.0634461 12.676 0.176L15.824 3.324C15.88 3.3799 15.9243 3.44632 15.9545 3.51943C15.9847 3.59254 16.0002 3.6709 16 3.75V19.4C16 19.4788 15.9845 19.5568 15.9543 19.6296C15.9242 19.7024 15.88 19.7685 15.8243 19.8243C15.7685 19.88 15.7024 19.9242 15.6296 19.9543C15.5568 19.9845 15.4788 20 15.4 20H0.6C0.521207 20 0.443185 19.9845 0.37039 19.9543C0.297595 19.9242 0.231451 19.88 0.175736 19.8243C0.120021 19.7685 0.0758252 19.7024 0.0456724 19.6296C0.0155196 19.5568 0 19.4788 0 19.4V19.4Z" fill="black"/>
<g clip-path="url(#clip1_101_2)">
<path d="M12 3.399V0.352998C12.0009 0.283887 12.022 0.216546 12.0607 0.159284C12.0994 0.102022 12.154 0.057343 12.2178 0.0307596C12.2816 0.00417612 12.3518 -0.00314904 12.4197 0.0096879C12.4876 0.0225248 12.5503 0.0549624 12.6 0.102998L15.9 3.399C15.9485 3.44852 15.9814 3.51123 15.9945 3.5793C16.0076 3.64737 16.0003 3.71779 15.9737 3.78177C15.947 3.84576 15.9021 3.90048 15.8445 3.93911C15.787 3.97774 15.7193 3.99857 15.65 3.999H12.6C12.4409 3.999 12.2883 3.93578 12.1757 3.82326C12.0632 3.71074 12 3.55813 12 3.399V3.399Z" fill="white"/>
</g>
<g clip-path="url(#clip2_101_2)">
<path d="M6.635 8.415L7.674 6.215C7.70211 6.15203 7.74786 6.09854 7.80571 6.06101C7.86356 6.02348 7.93104 6.00351 8 6.00351C8.06896 6.00351 8.13645 6.02348 8.1943 6.06101C8.25215 6.09854 8.2979 6.15203 8.326 6.215L9.366 8.415L11.689 8.771C11.7575 8.78429 11.821 8.81593 11.8729 8.86252C11.9247 8.90912 11.963 8.96892 11.9835 9.03555C12.0041 9.10219 12.0061 9.17315 11.9895 9.24086C11.9728 9.30857 11.9381 9.37048 11.889 9.42L10.209 11.133L10.609 13.554C10.6228 13.6217 10.6172 13.692 10.5929 13.7567C10.5685 13.8214 10.5264 13.8779 10.4713 13.9197C10.4162 13.9615 10.3505 13.9869 10.2816 13.993C10.2127 13.9991 10.1435 13.9855 10.082 13.954L8 12.812L5.922 13.955C5.86048 13.9865 5.79129 14.0001 5.72242 13.994C5.65354 13.9879 5.58778 13.9625 5.5327 13.9207C5.47763 13.8789 5.43549 13.8224 5.41112 13.7577C5.38676 13.693 5.38117 13.6227 5.395 13.555L5.795 11.133L4.111 9.42C4.06198 9.37037 4.02731 9.30838 4.0107 9.24063C3.99409 9.17287 3.99616 9.10188 4.01667 9.03521C4.03719 8.96853 4.07539 8.90866 4.12722 8.86196C4.17904 8.81526 4.24256 8.78348 4.311 8.77L6.635 8.415Z" fill="white"/>
</g>
</g>
<defs>
<clipPath id="clip0_101_2">
<rect width="16" height="20" fill="white"/>
</clipPath>
<clipPath id="clip1_101_2">
<rect width="4.001" height="3.999" fill="white" transform="translate(12)"/>
</clipPath>
<clipPath id="clip2_101_2">
<rect width="8" height="7.999" fill="white" transform="translate(4 6)"/>
</clipPath>
</defs>
</svg>
