<svg width="70" height="70" viewBox="0 0 70 70" fill="none" xmlns="http://www.w3.org/2000/svg">
<path d="M35 70C54.33 70 70 54.33 70 35C70 15.67 54.33 0 35 0C15.67 0 0 15.67 0 35C0 54.33 15.67 70 35 70Z" fill="white"/>
<path d="M35 69.5C54.0538 69.5 69.5 54.0538 69.5 35C69.5 15.9462 54.0538 0.5 35 0.5C15.9462 0.5 0.5 15.9462 0.5 35C0.5 54.0538 15.9462 69.5 35 69.5Z" stroke="white"/>
<g clip-path="url(#clip0_101_8)">
<path d="M26 20V50L49.571 35L26 20Z" fill="#212121"/>
</g>
<defs>
<clipPath id="clip0_101_8">
<rect width="23.571" height="30" fill="white" transform="translate(26 20)"/>
</clipPath>
</defs>
</svg>
