<svg id="SvgjsSvg1001" width="288" height="288" xmlns="http://www.w3.org/2000/svg" version="1.1" xmlns:xlink="http://www.w3.org/1999/xlink" xmlns:svgjs="http://svgjs.com/svgjs"><defs id="SvgjsDefs1002"></defs><g id="SvgjsG1008"><svg xmlns="http://www.w3.org/2000/svg" enable-background="new 0 0 297 297" viewBox="0 0 297 297" width="288" height="288"><path d="M241.814,69.206H98.175l55.489-33.306c4.751-2.853,6.29-9.016,3.439-13.768c-2.851-4.75-9.015-6.291-13.768-3.439
		L59.18,69.206h-3.994C24.756,69.206,0,93.962,0,124.392v100.159c0,30.43,24.756,55.187,55.185,55.187h186.629
		c30.43,0,55.186-24.757,55.186-55.187V124.392C297,93.962,272.244,69.206,241.814,69.206z M241.814,89.274
		c19.364,0,35.118,15.754,35.118,35.118v100.159c0,19.364-15.754,35.118-35.118,35.118H55.185
		c-19.363,0-35.118-15.754-35.118-35.118V124.392c0-19.364,15.755-35.118,35.118-35.118H241.814z" fill="#ffffff" class="color000 svgShape"></path><path d="M200.424 112.496c-34.164 0-61.958 27.803-61.958 61.977 0 34.174 27.794 61.977 61.958 61.977 34.164 0 61.958-27.803 61.958-61.977C262.382 140.298 234.588 112.496 200.424 112.496zM200.424 216.381c-23.099 0-41.89-18.801-41.89-41.909s18.791-41.909 41.89-41.909c23.099 0 41.89 18.801 41.89 41.909S223.523 216.381 200.424 216.381zM113.885 129.81H44.652c-5.541 0-10.034 4.493-10.034 10.034s4.493 10.034 10.034 10.034h69.232c5.541 0 10.033-4.493 10.033-10.034S119.426 129.81 113.885 129.81zM113.885 164.438H44.652c-5.541 0-10.034 4.492-10.034 10.034 0 5.541 4.493 10.033 10.034 10.033h69.232c5.541 0 10.033-4.492 10.033-10.033C123.918 168.93 119.426 164.438 113.885 164.438zM113.885 199.067H44.652c-5.541 0-10.034 4.493-10.034 10.034 0 5.541 4.493 10.033 10.034 10.033h69.232c5.541 0 10.033-4.492 10.033-10.033C123.918 203.56 119.426 199.067 113.885 199.067z" fill="#ffffff" class="color000 svgShape"></path></svg></g></svg>